<?xml version="1.0" encoding="UTF-8"?>
<svg id="Layer_1" xmlns="http://www.w3.org/2000/svg" xmlns:xlink="http://www.w3.org/1999/xlink" version="1.1" viewBox="0 0 60 41">
  <!-- Generator: Adobe Illustrator 29.5.0, SVG Export Plug-In . SVG Version: 2.1.0 Build 137)  -->
  <defs>
    <style>
      .st0 {
        fill: #fff;
      }

      .st0, .st1 {
        fill-rule: evenodd;
      }

      .st2 {
        fill: none;
        stroke: #fff;
        stroke-linecap: round;
        stroke-width: .79px;
      }

      .st1 {
        fill: #129f49;
      }
    </style>
    <symbol id="A" viewBox="0 0 59.06 40.16">
      <g>
        <path id="C" class="st1" d="M58.67,28.35c0-6.3-12.99-11.42-29.14-11.42S.39,22.05.39,28.35V11.81C.39,5.51,13.39.39,29.53.39s29.14,5.12,29.14,11.42v16.54Z"/>
        <path id="C1" data-name="C" class="st2" d="M58.67,28.35c0-6.3-12.99-11.42-29.14-11.42S.39,22.05.39,28.35V11.81C.39,5.51,13.39.39,29.53.39s29.14,5.12,29.14,11.42v16.54Z"/>
        <path id="D" class="st1" d="M29.53,16.93c16.14,0,29.14,5.12,29.14,11.42s-12.99,11.42-29.14,11.42S.39,34.65.39,28.35s12.99-11.42,29.14-11.42h0Z"/>
        <path id="D1" data-name="D" class="st2" d="M29.53,16.93c16.14,0,29.14,5.12,29.14,11.42s-12.99,11.42-29.14,11.42S.39,34.65.39,28.35s12.99-11.42,29.14-11.42h0Z"/>
        <path class="st0" d="M22.84,32.69l2.36-3.54-9.06-1.97,1.97,1.57-13.78,2.36,3.54,2.76,13.39-2.36,1.58,1.18h0ZM35.84,24.03l-1.97,3.54,8.27,1.97-1.18-1.57,13.39-2.36-3.15-2.36-13.78,2.36-1.58-1.57h0ZM31.11,34.66l9.06,2.36.39-3.54-2.36.39-4.33-3.94-4.33.79,4.33,3.54-2.76.39h0ZM27.17,20.48l-8.66-1.58-.39,4.33,2.76-.79,4.73,4.33,4.33-.79-5.12-4.72,2.36-.79h0Z"/>
      </g>
    </symbol>
  </defs>
  <use width="59.06" height="40.16" transform="translate(.11 40.27) scale(1 -1)" xlink:href="#A"/>
</svg>